<svg xmlns="http://www.w3.org/2000/svg" id="drawingArea" width="206" height="71"><g transform="scale(1) translate(5,5) skewX(0)"><g id="layer6" style="stroke:#22e9f7;stroke-width:2px;" transform="translate(0,0)">
    <path id="path4136" d="m 0,30.50004 18,0" style="fill:none;fill-rule:evenodd;stroke-linecap:butt;stroke-linejoin:miter;stroke-opacity:1"/>
    <path id="path4136-0" d="m 3.5,0.5 10,0" style="display:inline;fill:none;fill-rule:evenodd;stroke-linecap:round;stroke-linejoin:miter;stroke-opacity:1"/>
    <path style="display:inline;fill:none;fill-rule:evenodd;stroke-linecap:round;stroke-linejoin:miter;stroke-opacity:1" d="m 3.5,60.50004 10,0" id="path4187"/>
    <path id="path4139" d="m 8.5,0.5 0,60" style="fill:none;fill-rule:evenodd;stroke-linecap:round;stroke-linejoin:miter;stroke-opacity:1"/>
  </g><g id="layer2" style="stroke:#22e9f7;stroke-width:2px;" transform="translate(18,0)">
    <path style="fill:none;fill-rule:evenodd;stroke-linecap:butt;stroke-linejoin:miter;stroke-opacity:1" d="m 0,30.50004 7,0" id="path4136"/>
    <path style="display:inline;fill:none;fill-rule:evenodd;stroke-linecap:round;stroke-linejoin:miter;stroke-opacity:1" d="m 3.50005,10.5 0,40" id="path4139-3"/>
  </g><g id="layer3" style="stroke:#22e9f7;stroke-width:2px;" transform="translate(25,0)">
    <path style="fill:none;fill-rule:evenodd;stroke-linecap:butt;stroke-linejoin:miter;stroke-opacity:1" d="m 0,30.50004 20,0" id="path4136"/>
    <path id="path4198" d="M 16.5,0.5 C 16.458333,10.276042 14.546216,12.424125 11.349609,12.453125 10.238756,12.463203 8.503552,12.396781 8.5,10.5 8.47917,24.427083 5.833334,30.510416 2.5,30.5" style="fill:none;fill-rule:evenodd;stroke-linecap:round;stroke-linejoin:round;stroke-opacity:1"/>
    <path style="fill:none;fill-rule:evenodd;stroke-linecap:round;stroke-linejoin:round;stroke-opacity:1" d="M 16.5,60.499907 C 16.45833,50.723865 14.546216,48.575782 11.349609,48.546782 10.238756,48.536702 8.503552,48.603122 8.5,50.499907 c -0.02083,-13.927083 -2.666666,-20.010416 -6,-20" id="path4883"/>
    <path style="fill:none;fill-rule:evenodd;stroke-linecap:round;stroke-linejoin:miter;stroke-opacity:1" d="m 16.5,0.5 0,60" id="path4139"/>
  </g><g id="g4142" style="stroke:#22e9f7;stroke-width:2px;" transform="translate(45,0)">
    <path style="fill:none;fill-rule:evenodd;stroke-linecap:butt;stroke-linejoin:miter;stroke-opacity:1" d="m 0,30.50004 20,0" id="path4136"/>
    <path id="path4950" d="m 3.5000734,0.5 c 0.04167,12.604167 7.3333326,30.020833 13.9999996,30" style="fill:none;fill-rule:evenodd;stroke-linecap:round;stroke-linejoin:miter;stroke-opacity:1"/>
    <path style="fill:none;fill-rule:evenodd;stroke-linecap:round;stroke-linejoin:miter;stroke-opacity:1" d="m 3.5000734,60.499907 c 0.04167,-12.604167 7.3333326,-30.020833 13.9999996,-30" id="path4952"/>
    <path style="fill:none;fill-rule:evenodd;stroke-linecap:round;stroke-linejoin:miter;stroke-opacity:1" d="m 3.5001214,0.5 0,60" id="path4139"/>
  </g><g id="layer6" style="stroke:#22e9f7;stroke-width:2px;" transform="translate(65,0)">
    <path style="fill:none;fill-rule:evenodd;stroke-linecap:butt;stroke-linejoin:miter;stroke-opacity:1" d="m 0,30.50004 7,0" id="path4136"/>
    <path style="fill:none;fill-rule:evenodd;stroke-linecap:round;stroke-linejoin:miter;stroke-opacity:1" d="m 3.50005,0.5 0,60" id="path4139"/>
  </g><g id="g4142" style="stroke:#22e9f7;stroke-width:2px;" transform="translate(72,0)">
    <path style="fill:none;fill-rule:evenodd;stroke-linecap:butt;stroke-linejoin:miter;stroke-opacity:1" d="m 0,30.50004 20,0" id="path4136"/>
    <path id="path4950" d="m 3.5000734,0.5 c 0.04167,12.604167 7.3333326,30.020833 13.9999996,30" style="fill:none;fill-rule:evenodd;stroke-linecap:round;stroke-linejoin:miter;stroke-opacity:1"/>
    <path style="fill:none;fill-rule:evenodd;stroke-linecap:round;stroke-linejoin:miter;stroke-opacity:1" d="m 3.5000734,60.499907 c 0.04167,-12.604167 7.3333326,-30.020833 13.9999996,-30" id="path4952"/>
    <path style="fill:none;fill-rule:evenodd;stroke-linecap:round;stroke-linejoin:miter;stroke-opacity:1" d="m 3.5001214,0.5 0,60" id="path4139"/>
  </g><g id="layer9" style="stroke:#22e9f7;stroke-width:2px;" transform="translate(92,0)">
    <path transform="translate(0,-991.36216)" style="display:inline;fill:none;fill-rule:evenodd;stroke-linecap:butt;stroke-linejoin:miter;stroke-opacity:1" d="m 0,1021.8622 7,0" id="path4136"/>
    <path id="path4159" d="m 3.5,20.5 0,20" style="display:inline;fill:none;fill-rule:evenodd;stroke-linecap:round;stroke-linejoin:miter;stroke-opacity:1"/>
  </g><g id="layer5" style="stroke:#22e9f7;stroke-width:2px;" transform="translate(109,0)">
    <path style="fill:none;fill-rule:evenodd;stroke-linecap:butt;stroke-linejoin:miter;stroke-opacity:1" d="m 0,30.50004 16,0" id="path4136"/>
    <path id="path4202" d="M 12.500254,10.5 C 12.472484,18.898749 7.613709,30.513854 3.171395,30.499972" style="fill:none;fill-rule:evenodd;stroke-linecap:round;stroke-linejoin:miter;stroke-miterlimit:4;stroke-dasharray:none;stroke-opacity:1"/>
    <path style="fill:none;fill-rule:evenodd;stroke-linecap:round;stroke-linejoin:miter;stroke-miterlimit:4;stroke-dasharray:none;stroke-opacity:1" d="M 12.500254,50.499879 C 12.472484,42.10113 7.613709,30.486025 3.171395,30.499907" id="path4879"/>
    <path style="display:inline;fill:none;fill-rule:evenodd;stroke-linecap:round;stroke-linejoin:miter;stroke-opacity:1" d="m 12.5,10.5 0,40" id="path4139-3"/>
  </g><g id="layer6" style="stroke:#22e9f7;stroke-width:2px;" transform="translate(125,0)">
    <path style="fill:none;fill-rule:evenodd;stroke-linecap:butt;stroke-linejoin:miter;stroke-opacity:1" d="m 0,30.50004 7,0" id="path4136"/>
    <path style="fill:none;fill-rule:evenodd;stroke-linecap:round;stroke-linejoin:miter;stroke-opacity:1" d="m 3.50005,0.5 0,60" id="path4139"/>
  </g><g id="layer8" style="stroke:#22e9f7;stroke-width:2px;" transform="translate(132,0)">
    <path style="fill:none;fill-rule:evenodd;stroke-linecap:butt;stroke-linejoin:miter;stroke-opacity:1" d="m 0,30.50004 11,0" id="path4136"/>
    <path style="fill:none;fill-rule:evenodd;stroke-linecap:round;stroke-linejoin:miter;stroke-miterlimit:4;stroke-dasharray:none;stroke-opacity:1" d="m 3.528401,20.504826 c 0.01388,4.19935 2.443258,10.002087 4.664402,9.995146" id="path4938"/>
    <path id="path4940" d="m 3.528401,40.494879 c 0.01388,-4.19935 2.443258,-10.002087 4.664402,-9.995146" style="fill:none;fill-rule:evenodd;stroke-linecap:round;stroke-linejoin:miter;stroke-miterlimit:4;stroke-dasharray:none;stroke-opacity:1"/>
    <path id="path4159" d="m 3.5,20.5 0,20" style="display:inline;fill:none;fill-rule:evenodd;stroke-linecap:round;stroke-linejoin:miter;stroke-opacity:1"/>
  </g><g id="layer6" style="stroke:#22e9f7;stroke-width:2px;" transform="translate(143,0)">
    <path style="fill:none;fill-rule:evenodd;stroke-linecap:butt;stroke-linejoin:miter;stroke-opacity:1" d="m 0,30.50004 7,0" id="path4136"/>
    <path style="fill:none;fill-rule:evenodd;stroke-linecap:round;stroke-linejoin:miter;stroke-opacity:1" d="m 3.50005,0.5 0,60" id="path4139"/>
  </g><g id="layer8" style="stroke:#22e9f7;stroke-width:2px;" transform="translate(150,0)">
    <path style="fill:none;fill-rule:evenodd;stroke-linecap:butt;stroke-linejoin:miter;stroke-opacity:1" d="m 0,30.50004 16,0" id="path4136"/>
    <path style="fill:none;fill-rule:evenodd;stroke-linecap:round;stroke-linejoin:round;stroke-miterlimit:4;stroke-dasharray:none;stroke-opacity:1" d="m 12.500363,10.5 c -0.02777,6.514387 -1.301929,7.954887 -3.432028,7.974212 -0.74023,0.0067 -1.896505,-0.03755 -1.898872,-1.30149 -0.01388,9.280486 -1.776966,13.33419 -3.998175,13.32725" id="path4214"/>
    <path id="path4885" d="m 12.500363,50.499879 c -0.02777,-6.514387 -1.301929,-7.954887 -3.432028,-7.974212 -0.74023,-0.0067 -1.896505,0.03755 -1.898872,1.30149 -0.01388,-9.280486 -1.776966,-13.33419 -3.998175,-13.32725" style="fill:none;fill-rule:evenodd;stroke-linecap:round;stroke-linejoin:round;stroke-miterlimit:4;stroke-dasharray:none;stroke-opacity:1"/>
    <path style="display:inline;fill:none;fill-rule:evenodd;stroke-linecap:round;stroke-linejoin:miter;stroke-opacity:1" d="m 12.5,10.5 0,40" id="path4139-3"/>
  </g><g id="layer2" style="stroke:#22e9f7;stroke-width:2px;" transform="translate(166,0)">
    <path style="fill:none;fill-rule:evenodd;stroke-linecap:butt;stroke-linejoin:miter;stroke-opacity:1" d="m 0,30.50004 7,0" id="path4136"/>
    <path style="display:inline;fill:none;fill-rule:evenodd;stroke-linecap:round;stroke-linejoin:miter;stroke-opacity:1" d="m 3.50005,10.5 0,40" id="path4139-3"/>
  </g><g id="layer5" style="stroke:#22e9f7;stroke-width:2px;" transform="translate(173,0)">
    <path style="fill:none;fill-rule:evenodd;stroke-linecap:butt;stroke-linejoin:miter;stroke-opacity:1" d="m 0,30.50004 16,0" id="path4136"/>
    <path id="path4202" d="M 12.500254,10.5 C 12.472484,18.898749 7.613709,30.513854 3.171395,30.499972" style="fill:none;fill-rule:evenodd;stroke-linecap:round;stroke-linejoin:miter;stroke-miterlimit:4;stroke-dasharray:none;stroke-opacity:1"/>
    <path style="fill:none;fill-rule:evenodd;stroke-linecap:round;stroke-linejoin:miter;stroke-miterlimit:4;stroke-dasharray:none;stroke-opacity:1" d="M 12.500254,50.499879 C 12.472484,42.10113 7.613709,30.486025 3.171395,30.499907" id="path4879"/>
    <path style="display:inline;fill:none;fill-rule:evenodd;stroke-linecap:round;stroke-linejoin:miter;stroke-opacity:1" d="m 12.5,10.5 0,40" id="path4139-3"/>
  </g><g id="layer9" style="stroke:#22e9f7;stroke-width:2px;" transform="translate(189,0)">
    <path transform="translate(0,-991.36216)" style="display:inline;fill:none;fill-rule:evenodd;stroke-linecap:butt;stroke-linejoin:miter;stroke-opacity:1" d="m 0,1021.8622 7,0" id="path4136"/>
    <path id="path4159" d="m 3.5,20.5 0,20" style="display:inline;fill:none;fill-rule:evenodd;stroke-linecap:round;stroke-linejoin:miter;stroke-opacity:1"/>
  </g></g><desc>The text 'Acceso denegado' displayed in womens script from The Stormlight Archive</desc></svg>