<svg xmlns="http://www.w3.org/2000/svg" id="drawingArea" width="85" height="71"><g transform="scale(1) translate(5,5) skewX(0)"><g id="layer6" style="stroke:#22e9f7;stroke-width:2px;" transform="translate(0,0)">
    <path id="path4136" d="m 0,30.50004 18,0" style="fill:none;fill-rule:evenodd;stroke-linecap:butt;stroke-linejoin:miter;stroke-opacity:1"/>
    <path id="path4136-0" d="m 3.5,0.5 10,0" style="display:inline;fill:none;fill-rule:evenodd;stroke-linecap:round;stroke-linejoin:miter;stroke-opacity:1"/>
    <path style="display:inline;fill:none;fill-rule:evenodd;stroke-linecap:round;stroke-linejoin:miter;stroke-opacity:1" d="m 3.5,60.50004 10,0" id="path4187"/>
    <path id="path4139" d="m 8.5,0.5 0,60" style="fill:none;fill-rule:evenodd;stroke-linecap:round;stroke-linejoin:miter;stroke-opacity:1"/>
  </g><g id="layer11" style="stroke:#22e9f7;stroke-width:2px;" transform="translate(18,0)">
    <path style="fill:none;fill-rule:evenodd;stroke-linecap:butt;stroke-linejoin:miter;stroke-opacity:1" d="m 0,30.50004 11,0" id="path4136"/>
    <path id="path4210" d="m 7.499851,20.504826 c -0.01388,4.19935 -2.443258,10.002087 -4.664402,9.995146" style="fill:none;fill-rule:evenodd;stroke-linecap:round;stroke-linejoin:miter;stroke-miterlimit:4;stroke-dasharray:none;stroke-opacity:1"/>
    <path style="fill:none;fill-rule:evenodd;stroke-linecap:round;stroke-linejoin:miter;stroke-miterlimit:4;stroke-dasharray:none;stroke-opacity:1" d="M 7.499851,40.494879 C 7.485971,36.295529 5.056593,30.492792 2.835449,30.499733" id="path4881"/>
    <path id="path4159" d="m 7.5,20.5 0,20" style="display:inline;fill:none;fill-rule:evenodd;stroke-linecap:round;stroke-linejoin:miter;stroke-opacity:1"/>
  </g><g id="layer9" style="stroke:#22e9f7;stroke-width:2px;" transform="translate(29,0)">
    <path transform="translate(0,-991.36216)" style="display:inline;fill:none;fill-rule:evenodd;stroke-linecap:butt;stroke-linejoin:miter;stroke-opacity:1" d="m 0,1021.8622 7,0" id="path4136"/>
    <path id="path4159" d="m 3.5,20.5 0,20" style="display:inline;fill:none;fill-rule:evenodd;stroke-linecap:round;stroke-linejoin:miter;stroke-opacity:1"/>
  </g><g id="layer13" style="stroke:#22e9f7;stroke-width:2px;" transform="translate(36,0)">
    <path style="fill:none;fill-rule:evenodd;stroke-linecap:butt;stroke-linejoin:miter;stroke-opacity:1" d="m 0,30.50004 21,0" id="path4136"/>
    <path style="fill:none;fill-rule:evenodd;stroke-linecap:round;stroke-linejoin:miter;stroke-miterlimit:4;stroke-dasharray:none;stroke-opacity:1" d="m 3.500347,10.5 c 0.02777,8.398749 4.886545,20.013854 9.328859,19.999972" id="path4944"/>
    <path id="path4946" d="M 3.500347,50.499879 C 3.528117,42.10113 8.386892,30.486025 12.829206,30.499907" style="fill:none;fill-rule:evenodd;stroke-linecap:round;stroke-linejoin:miter;stroke-miterlimit:4;stroke-dasharray:none;stroke-opacity:1"/>
    <path style="display:inline;fill:none;fill-rule:evenodd;stroke-linecap:round;stroke-linejoin:miter;stroke-opacity:1" d="m 3.5,10.5 0,40" id="path4139-3"/>
    <path style="display:inline;fill:none;fill-rule:evenodd;stroke-linecap:round;stroke-linejoin:miter;stroke-opacity:1" d="m 14.5,24.5 0,12" id="path4163"/>
    <path id="path5006" d="m 17.5,24.5 0,12" style="display:inline;fill:none;fill-rule:evenodd;stroke-linecap:round;stroke-linejoin:miter;stroke-opacity:1"/>
  </g><g id="layer2" style="stroke:#22e9f7;stroke-width:2px;" transform="translate(57,0)">
    <path style="fill:none;fill-rule:evenodd;stroke-linecap:butt;stroke-linejoin:miter;stroke-opacity:1" d="m 0,30.50004 7,0" id="path4136"/>
    <path style="display:inline;fill:none;fill-rule:evenodd;stroke-linecap:round;stroke-linejoin:miter;stroke-opacity:1" d="m 3.50005,10.5 0,40" id="path4139-3"/>
  </g><g id="layer11" style="stroke:#22e9f7;stroke-width:2px;" transform="translate(64,0)">
    <path style="fill:none;fill-rule:evenodd;stroke-linecap:butt;stroke-linejoin:miter;stroke-opacity:1" d="m 0,30.50004 11,0" id="path4136"/>
    <path id="path4210" d="m 7.499851,20.504826 c -0.01388,4.19935 -2.443258,10.002087 -4.664402,9.995146" style="fill:none;fill-rule:evenodd;stroke-linecap:round;stroke-linejoin:miter;stroke-miterlimit:4;stroke-dasharray:none;stroke-opacity:1"/>
    <path style="fill:none;fill-rule:evenodd;stroke-linecap:round;stroke-linejoin:miter;stroke-miterlimit:4;stroke-dasharray:none;stroke-opacity:1" d="M 7.499851,40.494879 C 7.485971,36.295529 5.056593,30.492792 2.835449,30.499733" id="path4881"/>
    <path id="path4159" d="m 7.5,20.5 0,20" style="display:inline;fill:none;fill-rule:evenodd;stroke-linecap:round;stroke-linejoin:miter;stroke-opacity:1"/>
  </g></g><desc>The text 'Roshar' displayed in womens script from The Stormlight Archive</desc></svg>