<svg xmlns="http://www.w3.org/2000/svg" id="drawingArea" width="197.75594582321636" height="71"><g transform="scale(1) translate(15.755945823216363,5) skewX(-10)"><g id="layer6" style="stroke:#ac8080;stroke-width:2px;" transform="translate(0,0)">
    <path id="path4136" d="m 0,30.50004 18,0" style="fill:none;fill-rule:evenodd;stroke-linecap:butt;stroke-linejoin:miter;stroke-opacity:1"/>
    <path id="path4136-0" d="m 3.5,0.5 10,0" style="display:inline;fill:none;fill-rule:evenodd;stroke-linecap:round;stroke-linejoin:miter;stroke-opacity:1"/>
    <path style="display:inline;fill:none;fill-rule:evenodd;stroke-linecap:round;stroke-linejoin:miter;stroke-opacity:1" d="m 3.5,60.50004 10,0" id="path4187"/>
    <path id="path4139" d="m 8.5,0.5 0,60" style="fill:none;fill-rule:evenodd;stroke-linecap:round;stroke-linejoin:miter;stroke-opacity:1"/>
  </g><g id="layer11" style="stroke:#ac8080;stroke-width:2px;" transform="translate(18,0)">
    <path style="fill:none;fill-rule:evenodd;stroke-linecap:butt;stroke-linejoin:miter;stroke-opacity:1" d="m 0,30.50004 11,0" id="path4136"/>
    <path id="path4210" d="m 7.499851,20.504826 c -0.01388,4.19935 -2.443258,10.002087 -4.664402,9.995146" style="fill:none;fill-rule:evenodd;stroke-linecap:round;stroke-linejoin:miter;stroke-miterlimit:4;stroke-dasharray:none;stroke-opacity:1"/>
    <path style="fill:none;fill-rule:evenodd;stroke-linecap:round;stroke-linejoin:miter;stroke-miterlimit:4;stroke-dasharray:none;stroke-opacity:1" d="M 7.499851,40.494879 C 7.485971,36.295529 5.056593,30.492792 2.835449,30.499733" id="path4881"/>
    <path id="path4159" d="m 7.5,20.5 0,20" style="display:inline;fill:none;fill-rule:evenodd;stroke-linecap:round;stroke-linejoin:miter;stroke-opacity:1"/>
  </g><g id="layer6" style="stroke:#ac8080;stroke-width:2px;" transform="translate(29,0)">
    <path style="fill:none;fill-rule:evenodd;stroke-linecap:butt;stroke-linejoin:miter;stroke-opacity:1" d="m 0,30.50004 7,0" id="path4136"/>
    <path style="fill:none;fill-rule:evenodd;stroke-linecap:round;stroke-linejoin:miter;stroke-opacity:1" d="m 3.50005,0.5 0,60" id="path4139"/>
  </g><g id="g4142" style="stroke:#ac8080;stroke-width:2px;" transform="translate(36,0)">
    <path style="fill:none;fill-rule:evenodd;stroke-linecap:butt;stroke-linejoin:miter;stroke-opacity:1" d="m 0,30.50004 20,0" id="path4136"/>
    <path id="path4950" d="m 3.5000734,0.5 c 0.04167,12.604167 7.3333326,30.020833 13.9999996,30" style="fill:none;fill-rule:evenodd;stroke-linecap:round;stroke-linejoin:miter;stroke-opacity:1"/>
    <path style="fill:none;fill-rule:evenodd;stroke-linecap:round;stroke-linejoin:miter;stroke-opacity:1" d="m 3.5000734,60.499907 c 0.04167,-12.604167 7.3333326,-30.020833 13.9999996,-30" id="path4952"/>
    <path style="fill:none;fill-rule:evenodd;stroke-linecap:round;stroke-linejoin:miter;stroke-opacity:1" d="m 3.5001214,0.5 0,60" id="path4139"/>
  </g><g id="layer6" style="stroke:#ac8080;stroke-width:2px;" transform="translate(56,0)">
    <path style="fill:none;fill-rule:evenodd;stroke-linecap:butt;stroke-linejoin:miter;stroke-opacity:1" d="m 0,30.50004 7,0" id="path4136"/>
    <path style="fill:none;fill-rule:evenodd;stroke-linecap:round;stroke-linejoin:miter;stroke-opacity:1" d="m 3.50005,0.5 0,60" id="path4139"/>
  </g><g id="layer11" style="stroke:#ac8080;stroke-width:2px;" transform="translate(63,0)">
    <path style="fill:none;fill-rule:evenodd;stroke-linecap:butt;stroke-linejoin:miter;stroke-opacity:1" d="m 0,30.50004 11,0" id="path4136"/>
    <path id="path4210" d="m 7.499851,20.504826 c -0.01388,4.19935 -2.443258,10.002087 -4.664402,9.995146" style="fill:none;fill-rule:evenodd;stroke-linecap:round;stroke-linejoin:miter;stroke-miterlimit:4;stroke-dasharray:none;stroke-opacity:1"/>
    <path style="fill:none;fill-rule:evenodd;stroke-linecap:round;stroke-linejoin:miter;stroke-miterlimit:4;stroke-dasharray:none;stroke-opacity:1" d="M 7.499851,40.494879 C 7.485971,36.295529 5.056593,30.492792 2.835449,30.499733" id="path4881"/>
    <path id="path4159" d="m 7.5,20.5 0,20" style="display:inline;fill:none;fill-rule:evenodd;stroke-linecap:round;stroke-linejoin:miter;stroke-opacity:1"/>
  </g><g id="layer17" style="stroke:#ac8080;stroke-width:2px;" transform="translate(74,0)">
    <path style="fill:none;fill-rule:evenodd;stroke-linecap:butt;stroke-linejoin:miter;stroke-opacity:1" d="m 0,30.50004 18,0" id="path4136"/>
    <path id="path4210" d="m 7.499851,20.504826 c -0.01388,4.19935 -2.443258,10.002087 -4.664402,9.995146" style="fill:none;fill-rule:evenodd;stroke-linecap:round;stroke-linejoin:miter;stroke-miterlimit:4;stroke-dasharray:none;stroke-opacity:1"/>
    <path style="fill:none;fill-rule:evenodd;stroke-linecap:round;stroke-linejoin:miter;stroke-miterlimit:4;stroke-dasharray:none;stroke-opacity:1" d="M 7.499851,40.494879 C 7.485971,36.295529 5.056593,30.492792 2.835449,30.499733" id="path4881"/>
    <path style="fill:none;fill-rule:evenodd;stroke-linecap:round;stroke-linejoin:miter;stroke-miterlimit:4;stroke-dasharray:none;stroke-opacity:1" d="m 7.528401,20.504826 c 0.01388,4.19935 2.443258,10.002087 4.664402,9.995146" id="path4938"/>
    <path id="path4940" d="m 7.528401,40.494879 c 0.01388,-4.19935 2.443258,-10.002087 4.664402,-9.995146" style="fill:none;fill-rule:evenodd;stroke-linecap:round;stroke-linejoin:miter;stroke-miterlimit:4;stroke-dasharray:none;stroke-opacity:1"/>
    <path style="display:inline;fill:none;fill-rule:evenodd;stroke-linecap:round;stroke-linejoin:miter;stroke-opacity:1" d="m 14.5,24.5 0,12" id="path4163"/>
  </g><g id="layer2" style="stroke:#ac8080;stroke-width:2px;" transform="translate(92,0)">
    <path style="fill:none;fill-rule:evenodd;stroke-linecap:butt;stroke-linejoin:miter;stroke-opacity:1" d="m 0,30.50004 7,0" id="path4136"/>
    <path style="display:inline;fill:none;fill-rule:evenodd;stroke-linecap:round;stroke-linejoin:miter;stroke-opacity:1" d="m 3.50005,10.5 0,40" id="path4139-3"/>
  </g><g id="layer5" style="stroke:#ac8080;stroke-width:2px;" transform="translate(109,0)">
    <path style="fill:none;fill-rule:evenodd;stroke-linecap:butt;stroke-linejoin:miter;stroke-opacity:1" d="m 0,30.50004 16,0" id="path4136"/>
    <path id="path4202" d="M 12.500254,10.5 C 12.472484,18.898749 7.613709,30.513854 3.171395,30.499972" style="fill:none;fill-rule:evenodd;stroke-linecap:round;stroke-linejoin:miter;stroke-miterlimit:4;stroke-dasharray:none;stroke-opacity:1"/>
    <path style="fill:none;fill-rule:evenodd;stroke-linecap:round;stroke-linejoin:miter;stroke-miterlimit:4;stroke-dasharray:none;stroke-opacity:1" d="M 12.500254,50.499879 C 12.472484,42.10113 7.613709,30.486025 3.171395,30.499907" id="path4879"/>
    <path style="display:inline;fill:none;fill-rule:evenodd;stroke-linecap:round;stroke-linejoin:miter;stroke-opacity:1" d="m 12.5,10.5 0,40" id="path4139-3"/>
  </g><g id="layer6" style="stroke:#ac8080;stroke-width:2px;" transform="translate(125,0)">
    <path style="fill:none;fill-rule:evenodd;stroke-linecap:butt;stroke-linejoin:miter;stroke-opacity:1" d="m 0,30.50004 7,0" id="path4136"/>
    <path style="fill:none;fill-rule:evenodd;stroke-linecap:round;stroke-linejoin:miter;stroke-opacity:1" d="m 3.50005,0.5 0,60" id="path4139"/>
  </g><g id="layer2" style="stroke:#ac8080;stroke-width:2px;" transform="translate(142,0)">
    <path style="fill:none;fill-rule:evenodd;stroke-linecap:butt;stroke-linejoin:miter;stroke-opacity:1" d="m 0,30.50004 7,0" id="path4136"/>
    <path style="display:inline;fill:none;fill-rule:evenodd;stroke-linecap:round;stroke-linejoin:miter;stroke-opacity:1" d="m 3.50005,10.5 0,40" id="path4139-3"/>
  </g><g id="layer1" style="stroke:#ac8080;stroke-width:2px;" transform="translate(149,0)">
    <path style="fill:none;fill-rule:evenodd;stroke-linecap:butt;stroke-linejoin:miter;stroke-opacity:1" d="m 0,30.50004 10,0" id="path4136"/>
    <path id="path4159" d="m 3.5,20.5 0,20" style="display:inline;fill:none;fill-rule:evenodd;stroke-linecap:round;stroke-linejoin:miter;stroke-opacity:1"/>
    <path style="display:inline;fill:none;fill-rule:evenodd;stroke-linecap:round;stroke-linejoin:miter;stroke-opacity:1" d="m 6.5,24.5 0,12" id="path4163"/>
  </g><g id="layer11" style="stroke:#ac8080;stroke-width:2px;" transform="translate(159,0)">
    <path style="fill:none;fill-rule:evenodd;stroke-linecap:butt;stroke-linejoin:miter;stroke-opacity:1" d="m 0,30.50004 11,0" id="path4136"/>
    <path id="path4210" d="m 7.499851,20.504826 c -0.01388,4.19935 -2.443258,10.002087 -4.664402,9.995146" style="fill:none;fill-rule:evenodd;stroke-linecap:round;stroke-linejoin:miter;stroke-miterlimit:4;stroke-dasharray:none;stroke-opacity:1"/>
    <path style="fill:none;fill-rule:evenodd;stroke-linecap:round;stroke-linejoin:miter;stroke-miterlimit:4;stroke-dasharray:none;stroke-opacity:1" d="M 7.499851,40.494879 C 7.485971,36.295529 5.056593,30.492792 2.835449,30.499733" id="path4881"/>
    <path id="path4159" d="m 7.5,20.5 0,20" style="display:inline;fill:none;fill-rule:evenodd;stroke-linecap:round;stroke-linejoin:miter;stroke-opacity:1"/>
  </g><g id="layer6" style="stroke:#ac8080;stroke-width:2px;" transform="translate(170,0)">
    <path style="fill:none;fill-rule:evenodd;stroke-linecap:butt;stroke-linejoin:miter;stroke-opacity:1" d="m 0,30.50004 7,0" id="path4136"/>
    <path style="fill:none;fill-rule:evenodd;stroke-linecap:round;stroke-linejoin:miter;stroke-opacity:1" d="m 3.50005,0.5 0,60" id="path4139"/>
  </g></g><desc>The text 'Reserva de aire' displayed in womens script from The Stormlight Archive</desc></svg>